<svg width="623" height="374" viewBox="0 0 623 374" fill="none" xmlns="http://www.w3.org/2000/svg">
<g clip-path="url(#clip0)">
<path opacity="0.2" d="M91.0441 0.0428484C86.1972 -0.0977072 81.23 0.0428436 76.6838 1.46062C64.314 5.32284 58.4509 17.9606 60.3571 28.8812C62.2634 39.8017 70.105 49.3167 78.2413 58.0128C86.3776 66.7089 95.1934 75.3073 99.6555 85.7023C101.88 90.8906 102.921 96.7023 100.66 101.885C97.1719 109.872 86.6542 114.333 76.5575 115.262C66.4609 116.191 56.3221 114.382 46.1893 113.777C41.9378 113.526 37.5659 113.496 33.5609 114.663C29.1651 115.934 25.5028 118.531 22.1353 121.238C8.99573 131.86 -1.5219 146.349 0.179923 161.572C2.10425 178.823 19.2668 192.457 38.0651 199.772C44.289 202.217 50.8738 204.16 56.3521 207.619C70.7846 216.743 74.0259 233.854 72.5886 248.955C71.1514 264.055 66.2564 279.174 68.9805 294.14C72.1857 311.551 86.3716 327.281 105.507 334.626C122.555 341.171 143.891 340.737 159.027 331.503C166.405 326.993 171.986 320.729 176.839 314.252C184.045 304.686 189.998 294.209 194.549 283.085C196.659 277.897 198.644 272.317 203.569 268.712C206.576 266.493 210.472 265.253 214.327 264.287C225.945 261.378 238.183 260.584 249.909 257.993C261.635 255.402 273.434 250.556 279.808 241.939C288.829 229.717 284.619 214.06 284.661 199.687C284.733 166.895 308.18 137.543 316.833 105.576C319.66 95.1317 320.712 83.5756 314.398 74.2562C310.11 67.9312 302.876 63.3662 295.275 59.8401C278.551 52.0851 259.543 48.6323 240.847 45.2712C214.862 40.6023 183.309 39.9973 163.17 24.8906C143.843 10.389 117.401 0.0428484 91.0441 0.0428484Z" fill="#17a4cf"/>
<path d="M343.372 374C497.806 374 623 339.931 623 297.905C623 255.878 497.806 221.809 343.372 221.809C188.937 221.809 63.7432 255.878 63.7432 297.905C63.7432 339.931 188.937 374 343.372 374Z" fill="#F5F5F5"/>
<path d="M575.601 114.192C575.601 114.192 554.055 136.088 566.22 168.581C578.386 201.074 545.365 255.109 545.365 255.109C545.365 255.109 545.72 255.053 546.376 254.937C590.629 246.993 612.621 195.562 588.013 157.349C578.867 143.147 571.356 126.5 575.601 114.192Z" fill="#17a4cf"/>
<path d="M575.601 114.192C575.601 114.192 563.436 141.032 575.601 162.928C587.767 184.825 577.688 246.278 545.365 255.109" stroke="#535461" stroke-width="1.49346" stroke-miterlimit="10"/>
<path d="M613.98 202.76C613.98 202.76 589.391 198.782 587.154 221.173C584.916 243.564 539.875 246.669 539.875 246.669L540.717 247.237C577.905 272.042 613.481 263.04 608.069 230.126C606.102 217.855 606.264 205.553 613.98 202.76Z" fill="#6C63FF"/>
<path opacity="0.2" d="M613.98 202.76C613.98 202.76 589.391 198.782 587.154 221.173C584.916 243.564 539.875 246.669 539.875 246.669L540.717 247.237C577.905 272.042 613.481 263.04 608.069 230.126C606.102 217.855 606.264 205.553 613.98 202.76Z" fill="#17a4cf"/>
<path d="M613.98 202.761C613.98 202.761 594.893 207.039 596.462 224.651C598.032 242.263 568.121 263.426 539.875 246.651" stroke="#535461" stroke-width="1.49346" stroke-miterlimit="10"/>
<path d="M557.074 256.618H518.443C519.332 254.801 519.793 252.799 519.79 250.77V71.9829C519.79 68.4966 518.427 65.1531 516.002 62.688C513.576 60.2228 510.286 58.8379 506.855 58.8379H207.779C206.08 58.8371 204.397 59.1765 202.827 59.8367C201.257 60.497 199.83 61.4651 198.629 62.6858C197.427 63.9065 196.473 65.3559 195.823 66.9511C195.173 68.5463 194.838 70.2562 194.838 71.9829V250.776C194.835 252.805 195.296 254.807 196.185 256.624H156.189C155.282 256.624 154.411 256.99 153.77 257.642C153.128 258.295 152.767 259.179 152.767 260.101V262.906C152.772 268.06 154.79 273.002 158.378 276.644C161.966 280.287 166.831 282.333 171.902 282.333H541.361C546.435 282.333 551.302 280.285 554.891 276.638C558.48 272.991 560.496 268.045 560.496 262.888V260.083C560.492 259.163 560.13 258.281 559.489 257.632C558.848 256.983 557.979 256.618 557.074 256.618ZM319.005 267.74L315.709 263.921H397.926L394.258 267.746L319.005 267.74Z" fill="url(#paint0_linear)"/>
<path d="M502.11 61.3677H212.5C204.774 61.3677 198.512 67.7317 198.512 75.5821V247.592C198.512 255.442 204.774 261.806 212.5 261.806H502.11C509.835 261.806 516.098 255.442 516.098 247.592V75.5821C516.098 67.7317 509.835 61.3677 502.11 61.3677Z" fill="#535461"/>
<path d="M508.737 90.585H205.193V254.332H508.737V90.585Z" fill="white"/>
<path d="M356.968 79.0351C358.446 79.0351 359.644 77.8175 359.644 76.3156C359.644 74.8137 358.446 73.5962 356.968 73.5962C355.49 73.5962 354.292 74.8137 354.292 76.3156C354.292 77.8175 355.49 79.0351 356.968 79.0351Z" fill="white"/>
<path d="M403.837 254.668L393.404 265.54H319.859L310.436 254.668H160.735C159.848 254.668 158.998 255.026 158.371 255.664C157.744 256.301 157.392 257.165 157.392 258.066V260.804C157.392 265.845 159.362 270.679 162.869 274.243C166.377 277.807 171.134 279.81 176.094 279.81H537.175C542.135 279.81 546.892 277.807 550.399 274.243C553.907 270.679 555.877 265.845 555.877 260.804V258.066C555.877 257.165 555.525 256.301 554.898 255.664C554.271 255.026 553.42 254.668 552.534 254.668H403.837Z" fill="#535461"/>
<path d="M299.72 96.3418H171.674C168.563 96.3386 165.579 97.5908 163.376 99.8231C161.174 102.055 159.934 105.085 159.929 108.246V288.524C159.934 291.685 161.174 294.715 163.376 296.947C165.579 299.18 168.563 300.432 171.674 300.428H299.72C302.83 300.432 305.815 299.18 308.017 296.947C310.219 294.715 311.459 291.685 311.464 288.524V108.246C311.459 105.085 310.219 102.055 308.017 99.8231C305.815 97.5908 302.83 96.3386 299.72 96.3418Z" fill="url(#paint1_linear)"/>
<path d="M297.633 98.7861H173.754C167.112 98.7861 161.727 104.258 161.727 111.008V286.397C161.727 293.147 167.112 298.619 173.754 298.619H297.633C304.275 298.619 309.66 293.147 309.66 286.397V111.008C309.66 104.258 304.275 98.7861 297.633 98.7861Z" fill="#535461"/>
<path d="M302.143 117.688H169.244V279.718H302.143V117.688Z" fill="white"/>
<path d="M235.092 109.786C236.089 109.786 236.896 108.965 236.896 107.952C236.896 106.94 236.089 106.119 235.092 106.119C234.096 106.119 233.288 106.94 233.288 107.952C233.288 108.965 234.096 109.786 235.092 109.786Z" fill="white"/>
<path d="M235.092 294.342C238.081 294.342 240.504 291.879 240.504 288.842C240.504 285.804 238.081 283.342 235.092 283.342C232.103 283.342 229.68 285.804 229.68 288.842C229.68 291.879 232.103 294.342 235.092 294.342Z" fill="white"/>
<path d="M202.12 157.453H136.374C135.521 157.451 134.675 157.62 133.886 157.951C133.097 158.281 132.379 158.767 131.774 159.379C131.17 159.991 130.689 160.719 130.361 161.519C130.033 162.32 129.863 163.179 129.862 164.047V310.359C129.863 311.226 130.033 312.085 130.361 312.886C130.689 313.687 131.17 314.414 131.774 315.026C132.379 315.639 133.097 316.124 133.886 316.454C134.675 316.785 135.521 316.954 136.374 316.953H202.12C202.974 316.954 203.819 316.785 204.609 316.454C205.398 316.124 206.116 315.639 206.72 315.026C207.325 314.414 207.805 313.687 208.133 312.886C208.462 312.085 208.631 311.226 208.633 310.359V164.047C208.631 163.179 208.462 162.32 208.133 161.519C207.805 160.719 207.325 159.991 206.72 159.379C206.116 158.767 205.398 158.281 204.609 157.951C203.819 157.62 202.974 157.451 202.12 157.453Z" fill="url(#paint2_linear)"/>
<path d="M201.417 158.675H137.072C133.419 158.675 130.457 161.684 130.457 165.397V309.619C130.457 313.332 133.419 316.341 137.072 316.341H201.417C205.07 316.341 208.031 313.332 208.031 309.619V165.397C208.031 161.684 205.07 158.675 201.417 158.675Z" fill="#535461"/>
<path d="M202.319 173.342H136.17V301.675H202.319V173.342Z" fill="white"/>
<path d="M161.427 166.619C161.759 166.619 162.028 166.346 162.028 166.008C162.028 165.671 161.759 165.397 161.427 165.397C161.095 165.397 160.825 165.671 160.825 166.008C160.825 166.346 161.095 166.619 161.427 166.619Z" fill="white"/>
<path d="M177.062 165.397H165.035C164.703 165.397 164.434 165.671 164.434 166.008C164.434 166.346 164.703 166.619 165.035 166.619H177.062C177.394 166.619 177.663 166.346 177.663 166.008C177.663 165.671 177.394 165.397 177.062 165.397Z" fill="white"/>
<path d="M168.944 312.064C171.268 312.064 173.153 310.149 173.153 307.786C173.153 305.424 171.268 303.508 168.944 303.508C166.619 303.508 164.734 305.424 164.734 307.786C164.734 310.149 166.619 312.064 168.944 312.064Z" fill="white"/>
<path d="M122.513 327.708C122.513 327.708 114.539 300.208 124.011 279.956C128.042 271.491 129.262 261.924 127.486 252.694C126.609 248.322 125.338 244.041 123.692 239.904" stroke="#535461" stroke-width="1.49346" stroke-miterlimit="10"/>
<path d="M129.561 227.107C129.561 230.481 123.548 240.252 123.548 240.252C123.548 240.252 117.534 230.474 117.534 227.107C117.534 225.486 118.168 223.932 119.295 222.786C120.423 221.64 121.953 220.996 123.548 220.996C125.143 220.996 126.672 221.64 127.8 222.786C128.928 223.932 129.561 225.486 129.561 227.107Z" fill="#17a4cf"/>
<path d="M139.514 245.783C137.709 248.612 127.438 253.501 127.438 253.501C127.438 253.501 127.625 241.976 129.429 239.146C129.839 238.433 130.387 237.812 131.04 237.321C131.694 236.829 132.438 236.477 133.229 236.286C134.019 236.095 134.84 236.069 135.641 236.209C136.442 236.349 137.206 236.653 137.889 237.102C138.571 237.551 139.156 238.136 139.61 238.821C140.063 239.506 140.376 240.278 140.527 241.089C140.679 241.901 140.668 242.735 140.494 243.542C140.319 244.348 139.986 245.111 139.514 245.783Z" fill="#17a4cf"/>
<path d="M139.056 277.689C136.092 279.205 124.798 278.16 124.798 278.16C124.798 278.16 130.686 268.309 133.644 266.793C135.057 266.144 136.662 266.075 138.124 266.6C139.585 267.125 140.791 268.203 141.489 269.61C142.188 271.016 142.324 272.642 141.871 274.149C141.418 275.656 140.409 276.926 139.056 277.695V277.689Z" fill="#17a4cf"/>
<path d="M133.38 301.761C130.71 303.765 119.404 304.67 119.404 304.67C119.404 304.67 123.566 293.951 126.236 291.946C127.52 291.075 129.086 290.74 130.607 291.01C132.128 291.28 133.489 292.134 134.408 293.396C135.326 294.658 135.732 296.23 135.54 297.787C135.349 299.345 134.575 300.767 133.38 301.761Z" fill="#17a4cf"/>
<path d="M114.804 254.155C117.209 256.502 128.268 258.94 128.268 258.94C128.268 258.94 125.556 247.751 123.175 245.404C122.619 244.801 121.948 244.318 121.203 243.986C120.458 243.654 119.654 243.479 118.841 243.471C118.027 243.464 117.221 243.624 116.47 243.943C115.719 244.261 115.04 244.731 114.473 245.324C113.906 245.917 113.464 246.621 113.172 247.393C112.881 248.165 112.746 248.989 112.777 249.815C112.808 250.641 113.004 251.452 113.352 252.199C113.701 252.946 114.194 253.614 114.804 254.161V254.155Z" fill="#17a4cf"/>
<path d="M108.514 282.388C111.479 283.904 122.772 282.859 122.772 282.859C122.772 282.859 116.885 273.008 113.926 271.492C113.218 271.09 112.437 270.837 111.63 270.749C110.823 270.661 110.007 270.74 109.232 270.981C108.456 271.223 107.736 271.621 107.115 272.152C106.495 272.683 105.986 273.337 105.621 274.073C105.255 274.809 105.04 275.613 104.989 276.436C104.937 277.259 105.05 278.084 105.32 278.861C105.59 279.639 106.012 280.352 106.561 280.96C107.11 281.567 107.774 282.055 108.514 282.395V282.388Z" fill="#17a4cf"/>
<path d="M106.108 310.683C108.778 312.687 120.084 313.592 120.084 313.592C120.084 313.592 115.922 302.873 113.252 300.868C111.968 299.997 110.403 299.662 108.881 299.932C107.36 300.202 105.999 301.056 105.081 302.318C104.162 303.579 103.757 305.152 103.948 306.709C104.139 308.267 104.913 309.689 106.108 310.683Z" fill="#17a4cf"/>
<path d="M430.892 327.556C430.892 327.611 430.856 327.678 430.838 327.727C430.424 328.772 430.108 329.854 429.894 330.96C430.038 330.483 430.207 329.994 430.399 329.505C430.636 328.876 430.801 328.222 430.892 327.556Z" fill="#DDDBE2"/>
<path d="M373.704 331.473C373.385 331.558 373.072 331.992 372.778 332.585L372.874 332.548C373.139 332.475 373.59 331.937 374.137 331.143C374.02 331.286 373.872 331.399 373.704 331.473Z" fill="#DDDBE2"/>
<path d="M465.052 340.23L467.053 323.453L523.583 308.71L517.079 288.883C521.609 275.678 529.563 269.205 544.093 275.665L569.088 291.444C571.517 292.978 573.496 295.146 574.818 297.723C576.139 300.3 576.755 303.191 576.601 306.093C576.448 309.006 575.524 311.823 573.926 314.247C572.329 316.671 570.117 318.612 567.524 319.864C539.543 333.343 503.88 338.5 465.052 340.23Z" fill="#FFB8B8"/>
<path d="M468.554 345.314L451.045 342.772L434.668 346.168C433.665 346.376 432.629 346.361 431.632 346.122C430.635 345.884 429.701 345.428 428.895 344.787C428.088 344.145 427.428 343.334 426.961 342.408C426.493 341.482 426.229 340.464 426.186 339.424C426.139 338.262 426.369 337.104 426.859 336.052C427.349 335 428.082 334.084 428.997 333.384L454.66 313.735C456.86 312.05 459.58 311.218 462.331 311.387C465.081 311.556 467.683 312.716 469.668 314.658L476.058 320.912C471.485 323.794 468.085 328.12 466.053 334.129C470.447 336.585 471.281 340.313 468.554 345.314Z" fill="#2F2E41"/>
<path d="M485.277 169.179C494.22 169.179 501.47 161.811 501.47 152.723C501.47 143.635 494.22 136.268 485.277 136.268C476.334 136.268 469.084 143.635 469.084 152.723C469.084 161.811 476.334 169.179 485.277 169.179Z" fill="#FFB8B8"/>
<path d="M510.576 185.173L474.307 200.679C477.255 185.638 478.724 171.937 474.307 163.567L497.569 160.771C496.414 167.204 502.3 175.818 510.576 185.173Z" fill="#FFB8B8"/>
<path d="M449.044 339.722L435.537 338.705C427.262 303.64 423.026 270.496 424.875 240.247C425.136 235.832 427.07 231.69 430.271 228.692C433.473 225.695 437.692 224.073 442.044 224.169C446.226 224.266 450.223 225.943 453.253 228.873L470.72 245.765C478.509 253.239 484.556 262.388 488.418 272.543C493.365 285.71 491.589 293.091 479.779 291.838C472.4 291.002 465.613 287.335 460.804 281.586L448.043 266.515L449.044 339.722Z" fill="#FFB8B8"/>
<path d="M438.584 381.39C436.813 381.272 435.093 380.742 433.557 379.841C432.021 378.939 430.709 377.69 429.724 376.191C428.739 374.691 428.107 372.981 427.877 371.193C427.647 369.406 427.826 367.588 428.398 365.882L431.034 358.023L433.035 338.196C436.118 331.804 440.483 332.76 445.542 337.688C448.758 337.367 449.448 334.099 449.044 329.554L459.185 343.427C460.053 344.615 460.592 346.017 460.745 347.488C460.899 348.959 460.661 350.444 460.057 351.79L449.851 374.542C448.878 376.71 447.279 378.527 445.267 379.75C443.255 380.973 440.924 381.545 438.584 381.39Z" fill="#2F2E41"/>
<path d="M566.355 289.646C547.846 300.322 542.044 300.631 523.583 308.202L507.574 299.051C488.774 306.115 475.585 296.431 461.3 282.02C470.648 266.197 466.514 245.635 472.306 245.925L541.592 268.039L544.594 275.665L566.355 289.646Z" fill="#2F2E41"/>
<path d="M544.093 273.123C519.629 283.885 493.288 272.491 470.805 247.45L455.918 186.352C455.742 185.679 455.704 184.976 455.805 184.287C455.906 183.599 456.146 182.938 456.508 182.347C456.87 181.756 457.347 181.247 457.911 180.85C458.474 180.454 459.111 180.179 459.783 180.042L477.058 176.531L485.563 190.257L502.572 175.006L520.635 181.007C523.037 181.805 525.18 183.251 526.836 185.191C528.492 187.13 529.598 189.491 530.036 192.02L544.093 273.123Z" fill="#17a4cf"/>
<path opacity="0.2" d="M505.235 324.92C503.915 324.409 502.734 323.583 501.793 322.512C500.851 321.442 500.176 320.157 499.824 318.767C499.472 317.376 499.453 315.92 499.77 314.521C500.086 313.121 500.728 311.82 501.641 310.724L513.077 297.017L521.081 301.593L516.96 318.669C516.662 319.904 516.108 321.062 515.337 322.063C514.565 323.065 513.593 323.889 512.484 324.48C511.375 325.071 510.156 325.416 508.906 325.492C507.656 325.568 506.405 325.373 505.235 324.92Z" fill="black"/>
<path d="M505.235 322.886C503.915 322.375 502.734 321.55 501.793 320.479C500.851 319.409 500.176 318.124 499.824 316.734C499.472 315.343 499.453 313.887 499.77 312.488C500.086 311.088 500.728 309.786 501.641 308.691L513.077 294.984L521.081 299.559L516.96 316.636C516.662 317.871 516.108 319.028 515.337 320.03C514.565 321.032 513.593 321.856 512.484 322.447C511.375 323.038 510.156 323.383 508.906 323.459C507.656 323.534 506.405 323.339 505.235 322.886Z" fill="#FFB8B8"/>
<path d="M523.082 303.626L511.076 295.492L528.585 248.213L522.082 181.615L528.015 185.383C531.198 187.405 533.945 190.063 536.087 193.197C538.23 196.33 539.723 199.873 540.478 203.611L550.097 251.263C545.888 273.228 538.873 292.553 523.082 303.626Z" fill="#17a4cf"/>
<path opacity="0.2" d="M515.829 228.132L521.832 258.635L516.894 276.474L515.829 228.132Z" fill="black"/>
<path d="M469.441 151.312C469.441 151.312 460.109 120.278 488.628 126.786C493.052 127.796 496.873 130.409 499.913 133.827C500.186 134.126 500.519 134.361 500.89 134.515C501.261 134.669 501.661 134.738 502.062 134.719C506.617 134.719 509.431 151.263 500.32 158.538C500.32 158.538 502.179 148.748 498.8 145.412C498.192 144.848 497.683 144.182 497.296 143.444C495.096 138.935 487.702 137.455 482.603 137.839C480 138.035 479.772 142.648 476.891 142.003C470.333 140.537 468.24 148.257 469.441 151.312Z" fill="#2F2E41"/>
<path d="M498.789 220.748C498.936 222.176 498.742 223.619 498.226 224.955C497.71 226.292 496.886 227.483 495.824 228.429C494.761 229.375 493.49 230.049 492.119 230.393C490.747 230.737 489.314 230.741 487.94 230.406L470.745 226.211L471.156 216.887L488.014 212.929C489.234 212.643 490.499 212.623 491.727 212.871C492.955 213.12 494.117 213.631 495.136 214.37C496.155 215.109 497.007 216.06 497.637 217.16C498.267 218.259 498.66 219.482 498.789 220.748Z" fill="#FFB8B8"/>
<path d="M475.558 227.877L429.152 229.056C427.477 229.099 425.813 228.77 424.276 228.092C422.739 227.414 421.365 226.404 420.252 225.131C419.138 223.859 418.311 222.355 417.828 220.724C417.344 219.094 417.217 217.376 417.454 215.69C417.825 213.049 419.073 210.616 420.99 208.793L442.839 188.022C446.891 184.169 451.941 181.571 457.394 180.532L465.052 179.073L469.554 213.643L443.541 210.592L474.057 214.151L475.558 227.877Z" fill="#17a4cf"/>
<path d="M422.517 374.912H304.047C302.993 374.912 301.983 374.487 301.238 373.73C300.493 372.973 300.074 371.946 300.074 370.875C343.02 365.803 385.158 365.803 426.49 370.875C426.49 371.946 426.071 372.973 425.326 373.73C424.581 374.487 423.571 374.912 422.517 374.912Z" fill="#2F2E41"/>
<path d="M426.49 371.113L300.074 370.875L314.725 345.823L314.796 345.704V290.492C314.796 289.822 314.925 289.158 315.178 288.539C315.43 287.92 315.8 287.357 316.266 286.883C316.733 286.409 317.286 286.033 317.895 285.777C318.505 285.521 319.158 285.389 319.817 285.389H406.046C406.705 285.389 407.358 285.521 407.968 285.777C408.577 286.033 409.131 286.409 409.597 286.883C410.063 287.357 410.433 287.92 410.685 288.539C410.938 289.158 411.068 289.822 411.067 290.492V346.084L426.49 371.113Z" fill="#3F3D56"/>
<path d="M319.703 288.951C319.269 288.951 318.853 289.126 318.547 289.438C318.24 289.75 318.067 290.172 318.067 290.613V340.955C318.067 341.396 318.24 341.818 318.547 342.13C318.853 342.441 319.269 342.617 319.703 342.617H406.861C407.295 342.617 407.711 342.441 408.017 342.13C408.324 341.818 408.497 341.396 408.497 340.955V290.613C408.497 290.172 408.324 289.75 408.017 289.438C407.711 289.127 407.295 288.951 406.861 288.951L319.703 288.951Z" fill="white"/>
<path d="M320.275 349.267C320.141 349.267 320.01 349.306 319.897 349.379C319.785 349.453 319.695 349.558 319.638 349.681L315.124 359.655C315.075 359.763 315.053 359.883 315.061 360.002C315.07 360.121 315.107 360.236 315.171 360.337C315.234 360.437 315.321 360.52 315.424 360.577C315.528 360.635 315.643 360.665 315.761 360.665H410.697C410.817 360.665 410.934 360.634 411.039 360.575C411.143 360.515 411.231 360.43 411.294 360.327C411.357 360.224 411.392 360.106 411.398 359.984C411.403 359.863 411.378 359.742 411.324 359.634L406.417 349.66C406.359 349.542 406.27 349.442 406.159 349.372C406.048 349.303 405.921 349.266 405.79 349.267L320.275 349.267Z" fill="#2F2E41"/>
<path d="M362.932 288.12C363.512 288.12 363.983 287.642 363.983 287.052C363.983 286.461 363.512 285.983 362.932 285.983C362.351 285.983 361.88 286.461 361.88 287.052C361.88 287.642 362.351 288.12 362.932 288.12Z" fill="white"/>
<path d="M353.6 362.564C353.446 362.564 353.296 362.616 353.174 362.711C353.051 362.806 352.963 362.94 352.923 363.091L351.791 367.365C351.763 367.471 351.759 367.582 351.78 367.689C351.801 367.796 351.846 367.897 351.911 367.984C351.977 368.071 352.061 368.141 352.157 368.189C352.254 368.238 352.36 368.263 352.468 368.263H374.003C374.115 368.263 374.225 368.236 374.325 368.184C374.424 368.132 374.51 368.056 374.574 367.964C374.639 367.871 374.681 367.764 374.697 367.652C374.713 367.54 374.702 367.425 374.666 367.318L373.21 363.043C373.162 362.903 373.073 362.782 372.954 362.696C372.835 362.61 372.693 362.564 372.547 362.564H353.6Z" fill="#2F2E41"/>
<path d="M411.067 344.873V345.823H314.726L314.798 345.704V344.873H411.067Z" fill="#2F2E41"/>
<path d="M393.304 303.546C391.991 308.756 390.709 313.974 389.408 319.188C388.975 320.926 388.539 322.663 388.101 324.4C387.724 325.897 389.53 326.387 389.908 324.887C391.221 319.676 392.504 314.458 393.804 309.245C394.237 307.507 394.673 305.769 395.111 304.032C395.488 302.535 393.682 302.045 393.304 303.546Z" fill="#17a4cf"/>
<path d="M397.168 308.179C399.978 310.536 402.555 313.125 405.192 315.459C406.132 316.241 392.546 322.725 393.482 323.512C391.675 326.951 408.544 316.498 407.735 315.819C404.925 313.461 404.013 311.424 401.194 309.076C400.255 308.294 399.317 307.509 398.38 306.723C397.573 306.046 396.359 307.5 397.168 308.179Z" fill="#17a4cf"/>
<path d="M332.83 321.963C329.801 319.903 327.885 317.491 325.03 315.438C324.018 314.755 335.995 307.019 334.985 306.332C336.445 302.725 320.691 314.844 321.563 315.438C324.591 317.497 325.699 319.431 328.735 321.48C329.747 322.163 330.758 322.848 331.768 323.535C332.638 324.126 333.702 322.556 332.83 321.963Z" fill="#17a4cf"/>
<path d="M342.145 318.042L374.792 317.698L384.078 317.6C386.398 317.576 386.404 313.909 384.078 313.934L351.43 314.277L342.145 314.375C339.825 314.4 339.819 318.066 342.145 318.042Z" fill="#17a4cf"/>
<path d="M341.726 308L367.23 307.642L374.483 307.54C376.296 307.515 376.301 303.697 374.483 303.722L348.979 304.08L341.726 304.182C339.913 304.207 339.909 308.025 341.726 308Z" fill="#17a4cf"/>
<path d="M342.145 326.598L374.792 326.254L384.078 326.156C386.398 326.132 386.404 322.465 384.078 322.489L351.43 322.833L342.145 322.931C339.825 322.955 339.819 326.622 342.145 326.598Z" fill="#17a4cf"/>
<path d="M198.484 250.162H136.507V255.083H198.484V250.162Z" fill="#E6E6E6"/>
<path d="M198.484 265.439H136.507V270.361H198.484V265.439Z" fill="#E6E6E6"/>
<path d="M198.484 280.717H136.507V285.638H198.484V280.717Z" fill="#E6E6E6"/>
<path d="M184.11 186.389H149.678V221.379H184.11V186.389Z" fill="#17a4cf"/>
<path d="M151.188 187L150.338 187.864L184.615 222.698L185.465 221.833L151.188 187Z" fill="white"/>
<path d="M184.615 187L150.338 221.833L151.188 222.698L185.465 187.864L184.615 187Z" fill="white"/>
<path d="M425.726 184.394H319.561V189.315H425.726V184.394Z" fill="#E6E6E6"/>
<path d="M421.547 200.444H319.318V205.333H421.547V200.444Z" fill="#17a4cf"/>
<path d="M417.338 216.333H319.318V221.222H417.338V216.333Z" fill="#E6E6E6"/>
<path d="M425.457 101.975H319.619V163.697H425.457V101.975Z" fill="#E6E6E6"/>
<path d="M319.918 101.445L319.32 102.504L425.158 164.227L425.756 163.167L319.918 101.445Z" fill="white"/>
<path d="M425.16 101.449L319.318 163.163L319.916 164.222L425.758 102.509L425.16 101.449Z" fill="white"/>
</g>
<defs>
<linearGradient id="paint0_linear" x1="356.631" y1="282.346" x2="356.631" y2="58.8318" gradientUnits="userSpaceOnUse">
<stop stop-color="#808080" stop-opacity="0.25"/>
<stop offset="0.54" stop-color="#808080" stop-opacity="0.12"/>
<stop offset="1" stop-color="#808080" stop-opacity="0.1"/>
</linearGradient>
<linearGradient id="paint1_linear" x1="71978.2" y1="129824" x2="71978.2" y2="61659.1" gradientUnits="userSpaceOnUse">
<stop stop-color="#808080" stop-opacity="0.25"/>
<stop offset="0.54" stop-color="#808080" stop-opacity="0.12"/>
<stop offset="1" stop-color="#808080" stop-opacity="0.1"/>
</linearGradient>
<linearGradient id="paint2_linear" x1="28758.4" y1="105850" x2="28758.4" y2="64220.7" gradientUnits="userSpaceOnUse">
<stop stop-color="#808080" stop-opacity="0.25"/>
<stop offset="0.54" stop-color="#808080" stop-opacity="0.12"/>
<stop offset="1" stop-color="#808080" stop-opacity="0.1"/>
</linearGradient>
<clipPath id="clip0">
<rect width="623" height="374" fill="white"/>
</clipPath>
</defs>
</svg>
