<svg width="108" height="47" viewBox="0 0 108 47" fill="none" xmlns="http://www.w3.org/2000/svg">
<rect x="29.7209" y="7.53467" width="29.4975" height="10.2794" transform="rotate(90 29.7209 7.53467)" fill="#0FBAB6"/>
<rect y="26.9761" width="29.4975" height="10.2794" fill="#0FBAB6"/>
<rect x="19.2558" y="29.7207" width="29.4975" height="10.2794" transform="rotate(-90 19.2558 29.7207)" fill="#0FBAB6"/>
<rect x="60.2791" y="10.0464" width="41.0233" height="10.0465" transform="rotate(180 60.2791 10.0464)" fill="#0FBAB6"/>
<path d="M48.5665 17.903V21.344H43.8949V35.5347H39.6V21.344H34.9284V17.903H48.5665ZM55.0169 17.903V35.5347H50.722V17.903H55.0169ZM74.681 17.903L68.427 35.5347H63.0521L56.7982 17.903H61.3693L65.7396 31.2147L70.1349 17.903H74.681ZM80.7709 21.344V24.9105H86.5225V28.2258H80.7709V32.0937H87.276V35.5347H76.476V17.903H87.276V21.344H80.7709ZM105.837 35.5347H101.542L94.3592 24.6593V35.5347H90.0643V17.903H94.3592L101.542 28.8286V17.903H105.837V35.5347Z" fill="#0FBAB6"/>
</svg>
