<svg width="34" height="34" viewBox="0 0 34 34" fill="none" xmlns="http://www.w3.org/2000/svg">
<circle cx="16.6667" cy="16.6672" r="16.2568" fill="#0FBAB6" stroke="black" stroke-width="0.819672"/>
<path d="M16.9118 1.4707C13.8578 1.4707 10.8724 2.36194 8.33311 4.03171C5.79383 5.70148 3.81469 8.07479 2.64598 10.8515C1.47728 13.6282 1.17149 16.6836 1.76729 19.6314C2.3631 22.5791 3.83372 25.2868 5.99321 27.412C8.1527 29.5372 10.9041 30.9845 13.8993 31.5709C16.8946 32.1572 19.9993 31.8563 22.8209 30.7061C25.6424 29.556 28.0539 27.6082 29.7506 25.1093C31.4473 22.6103 32.3529 19.6723 32.3529 16.6668C32.341 12.6402 30.7103 8.78182 27.8171 5.93456C24.9239 3.08729 21.0033 1.48249 16.9118 1.4707ZM16.9118 6.02952C17.828 6.02952 18.7236 6.29692 19.4854 6.79785C20.2472 7.29878 20.8409 8.01075 21.1915 8.84377C21.5421 9.67679 21.6339 10.5934 21.4551 11.4777C21.2764 12.3621 20.8352 13.1744 20.1873 13.8119C19.5395 14.4495 18.7141 14.8837 17.8155 15.0596C16.9169 15.2355 15.9855 15.1452 15.139 14.8001C14.2926 14.4551 13.5691 13.8708 13.0601 13.1211C12.5511 12.3714 12.2794 11.49 12.2794 10.5883C12.2835 9.38051 12.7729 8.22332 13.6407 7.36924C14.5086 6.51517 15.6844 6.03356 16.9118 6.02952ZM16.9118 27.9762C15.0818 27.9679 13.2815 27.5205 11.6671 26.6726C10.0526 25.8247 8.67269 24.602 7.64705 23.1105C7.72129 20.0713 13.8235 18.3983 16.9118 18.3983C20 18.3983 26.1022 20.0713 26.1765 23.1105C25.1497 24.6009 23.7695 25.8227 22.1553 26.6705C20.5411 27.5182 18.7414 27.9664 16.9118 27.9762Z" fill="white"/>
</svg>
